<mxfile host="app.diagrams.net" modified="2023-06-22T17:20:35.985Z" agent="Mozilla/5.0 (Macintosh; Intel Mac OS X 10_15_7) AppleWebKit/537.36 (KHTML, like Gecko) Chrome/114.0.0.0 Safari/537.36" version="21.4.0" etag="Yxctb08f2cZYFzxNAkml" type="github">
  <diagram name="Page-1" id="_P9FrhlbSYR91C3bPbWa">
    <mxGraphModel>
      <root>
        <mxCell id="0" />
        <mxCell id="1" parent="0" />
      </root>
    </mxGraphModel>
  </diagram>
</mxfile>
